<svg version="1.1" id="Layer_1" xmlns="http://www.w3.org/2000/svg" xmlns:xlink="http://www.w3.org/1999/xlink" x="0px" y="0px" viewBox="0 0 450.1 60.8" style="enable-background:new 0 0 450.1 60.8;" xml:space="preserve">
 <style type="text/css">
  .st0{fill:#FF6A00;}
 </style>
 <path class="st0" d="M319.3,42.1v-2.9h-5.1c-3.5,0-4.9,0.6-4.9,3c0,1.9,1.2,2.6,3.8,2.6C316.2,44.8,318.4,43.7,319.3,42.1
	L319.3,42.1z M328.2,31V51h-8l-0.8-3.1c-1.1,1.8-4,3.6-8.9,3.6c-6.3,0-9.8-2.8-9.8-8.9c0-6.7,4-9.1,12-9.1h6.7v-0.2
	c0-3.4-1-4.4-5.9-4.4c-2.4,0-4.9,0.2-7.3,0.5v-7.5c2.8-0.3,5.6-0.5,8.4-0.5C324.4,21.4,328.1,24.6,328.2,31L328.2,31z M148.2,33.2
	L143.8,19h-0.6l-4.5,14.1H148.2z M150.8,41.5h-14.6l-3,9.4h-9.7l13.8-40.7h12.6l13.7,40.7h-9.9L150.8,41.5z M287.5,36.5
	c0-5.1-0.8-8.6-5.5-8.6s-5.9,3.1-5.9,8.6c0,5.2,1.1,8.4,5.9,8.4S287.5,41.2,287.5,36.5z M296.6,36.5c0,8.4-2.2,15-11.5,15
	c-5.5,0-7.6-1.7-8.7-4.2l-0.5,3.7h-8.2V10.1h8.9v14.8c1.2-1.7,3.5-3.5,8.5-3.5C294.4,21.4,296.6,27.1,296.6,36.5L296.6,36.5z
	 M251.4,42.2v-2.9h-5.1c-3.5,0-4.9,0.6-4.9,3c0,1.9,1.2,2.6,3.8,2.6C248.2,44.9,250.5,43.8,251.4,42.2L251.4,42.2z M260.2,31.1V51
	h-8l-0.8-3.1c-1.1,1.8-4,3.6-8.9,3.6c-6.3,0-9.8-2.8-9.8-8.9c0-6.7,4-9.1,12-9.1h6.7v-0.2c0-3.4-1-4.4-5.9-4.4
	c-2.4,0-4.9,0.2-7.3,0.5V22c2.8-0.3,5.6-0.5,8.4-0.5C256.5,21.5,260.2,24.7,260.2,31.1L260.2,31.1z M219.5,36.5c0-5-0.8-8.5-5.5-8.5
	s-5.9,3.1-5.9,8.5c0,5.2,1.1,8.5,5.9,8.5S219.5,41.2,219.5,36.5L219.5,36.5z M228.6,36.5c0,8.5-2.2,15.1-11.5,15.1
	c-5.5,0-7.6-1.7-8.7-4.2l-0.5,3.7h-8.2V10.1h8.9v14.8c1.2-1.7,3.5-3.4,8.5-3.4C226.4,21.4,228.6,27.1,228.6,36.5L228.6,36.5z
	 M183.7,22h8.9v29h-8.9V22z M183.3,13.8c0-4.2,0.9-4.5,4.9-4.5s4.9,0.3,4.9,4.5s-0.8,4.6-4.9,4.6S183.3,17.9,183.3,13.8L183.3,13.8z
	 M167.8,10.1h9V51h-9V10.1z M447.7,24c1.6,2,2.5,4.5,2.3,7v20h-4.6V32.6c0.1-1.9-0.3-3.7-1.2-5.3c-1.1-1.3-2.7-1.9-4.4-1.8
	c-1.7-0.1-3.3,0.3-4.8,1.1c-1.4,0.9-2.4,2.4-2.8,4V51h-4.6V32.6c0.1-1.9-0.3-3.7-1.2-5.3c-1-1.2-2.5-1.9-4.1-1.7
	c-1.7-0.1-3.3,0.3-4.8,1.1c-1.5,1-2.5,2.5-2.9,4.2V51h-4.6V22h4.6v3.8c0.7-1.5,1.9-2.7,3.4-3.4c1.6-0.7,3.3-1,5-1
	c4.3,0,7.1,1.6,8.5,4.7c1.4-3.1,4.5-4.7,9-4.7C443.8,21.4,446.2,22.3,447.7,24L447.7,24z M394.7,46.2c1.3-0.7,2.2-1.9,2.5-3.3
	c0.6-2.2,0.8-4.4,0.7-6.6c0.1-2.2-0.2-4.5-0.8-6.6c-0.4-1.4-1.3-2.6-2.6-3.4c-1.5-0.7-3.2-1.1-4.9-1c-1.7-0.1-3.4,0.2-5,1
	c-1.2,0.7-2.2,1.9-2.5,3.4c-0.6,2.2-0.8,4.4-0.8,6.6c-0.1,2.2,0.2,4.4,0.8,6.6c0.4,1.4,1.3,2.6,2.6,3.3c1.5,0.7,3.2,1.1,4.9,1
	C391.4,47.3,393.2,47,394.7,46.2L394.7,46.2z M382.4,49.7c-2-0.9-3.6-2.6-4.4-4.6c-2-5.7-2-11.9,0-17.6c0.9-2,2.4-3.7,4.4-4.6
	c2.3-1,4.8-1.5,7.3-1.4c2.5-0.1,5,0.4,7.3,1.4c2,1,3.5,2.6,4.4,4.6c2,5.7,2,11.9,0,17.6c-0.9,2-2.4,3.7-4.4,4.6
	c-2.3,1-4.8,1.5-7.3,1.4C387.1,51.1,384.7,50.6,382.4,49.7L382.4,49.7z M356.1,49.7c-2-1-3.6-2.6-4.4-4.6c-2-5.7-2-11.9,0-17.6
	c0.9-2,2.4-3.7,4.4-4.6c2.3-1,4.8-1.5,7.3-1.4c2.5,0,5,0.3,7.5,1.1v4.2c-2.4-0.9-4.9-1.3-7.4-1.2c-1.7-0.1-3.4,0.3-5,1
	c-1.3,0.7-2.2,1.9-2.6,3.3c-0.6,2.1-0.9,4.3-0.8,6.6c-0.1,2.2,0.2,4.4,0.8,6.5c0.4,1.4,1.3,2.6,2.6,3.3c1.6,0.7,3.3,1,5.1,1
	c2.5,0.1,5-0.3,7.4-1.2V50c-1.1,0.3-2.2,0.6-3.4,0.7c-1.4,0.2-2.8,0.3-4.2,0.3C360.9,51.2,358.4,50.7,356.1,49.7L356.1,49.7z
	 M338.4,50.8c-0.5-0.1-0.9-0.5-1.1-1c-0.3-0.8-0.4-1.6-0.3-2.4c-0.1-1,0.1-2,0.8-2.8c1.8-0.9,3.9-0.9,5.7,0c0.6,0.8,0.9,1.8,0.8,2.8
	c0.2,1-0.1,2.1-0.8,2.9c-0.8,0.6-1.8,0.8-2.8,0.7C339.9,51,339.2,50.9,338.4,50.8L338.4,50.8z M72.9,51.8c-4.9,0.2-4.4-2.3-1.5-6.2
	c6.7-9,19.3-21.4,19.7-30.3C91.9,3.8,80.3,0,68.3,0.1c-7.8,0.3-15.5,1.9-22.8,4.6c-20.3,7.1-33,18.6-41,31.2
	c-8.5,12.5-5.7,24.5,12.2,24.9c13.7-0.5,22.7-4.4,32-9.1c0,0-25.8,7.4-35.2,2c-1.3-0.7-2.2-2-2.3-3.5c0-4.5,7.4-9.1,11.6-10.6v-7.8
	c9.3,3.6,19.8,1.9,27.5-4.6c0.2,0.7,0.2,1.5,0.2,2.2h1.9c0.1-1.3-0.2-2.5-0.9-3.6c-1-1.6-2.7-2.6-4.6-2.6c1.1,0.5,2,1.3,2.7,2.4
	c-6.6,5.5-15.5,7.3-23.6,4.7l6.2-6.1l-1.7-4.4c12.8-4.7,26-8.3,39.5-10.5l-3.8-3.1l2-1.2c10.2,2.8,16.9,4.9,16.5,10.3
	c-0.2,1.1-0.5,2.1-1,3.1c-3,5.9-11.8,15.6-15.3,19.7c-2.3,2.5-4.4,5.1-6.3,7.9c-1.6,2.1-2.6,4.6-2.8,7.2C59.3,71,111.4,45,121.5,38
	C106.6,44.4,90.6,50.6,72.9,51.8L72.9,51.8z">
 </path>
</svg>